# xmcd
#
# Track frame offsets:
#	150
#	10487
#	29407
#	41670
#	57415
#	73305
#	85147
#	101317
#	115682
#	125119
#	139274
#	151372
#	162174
#	175922
#	186159
#	198634
#	208791
#
# Disc length: 2972 seconds
#
# Revision: 1
# Processed by: cddbd v1.5.1PL0 Copyright (c) Steve Scherf et al.
# Submitted via: audiograbber 1.83.01
#
DISCID=f90b9a11
DTITLE=Hillbillies - More Country
DYEAR=1991
DGENRE=Country
TTITLE0=Louisiana Saturday Night
TTITLE1=Blanket On The Ground
TTITLE2=Yellow Rose Of Texas
TTITLE3=Eighteen Wheels
TTITLE4=If You Got The Money
TTITLE5=San Antonio Stroll
TTITLE6=Annie`s Song
TTITLE7=Honky Tonk Heart
TTITLE8=Blue Blooded Woman
TTITLE9=Silver Threads
TTITLE10=Folsom Prison Blues
TTITLE11=Walkin`shoes
TTITLE12=Amarillo By Morning
TTITLE13=You Ain`t Woman Enough
TTITLE14=Oh Lonesome Me
TTITLE15=Country Boy
TTITLE16=Teach Your Children
EXTD=
EXTT0=
EXTT1=
EXTT2=
EXTT3=
EXTT4=
EXTT5=
EXTT6=
EXTT7=
EXTT8=
EXTT9=
EXTT10=
EXTT11=
EXTT12=
EXTT13=
EXTT14=
EXTT15=
EXTT16=
PLAYORDER=
